<svg width="214" height="214" viewBox="0 0 214 214" fill="none" xmlns="http://www.w3.org/2000/svg">
<rect width="214" height="214" fill="#005CDD"/>
<g clip-path="url(#clip0_1426_16)">
<path fill-rule="evenodd" clip-rule="evenodd" d="M72.1601 130.184V116.936H83.3921V128.24C83.3921 129.176 83.6081 129.68 83.9681 129.896C84.4001 130.112 85.6241 130.184 87.4961 130.184C89.3681 130.184 90.3761 129.896 90.7361 129.392C91.0961 128.816 91.4561 126.944 91.6721 123.776L102.112 124.712C101.824 128.672 101.824 130.544 101.248 132.92C100.672 135.224 100.528 136.088 99.2321 137.24C97.8641 138.392 97.1441 138.608 94.6241 138.968C92.1761 139.328 90.4481 139.328 86.4161 139.328C84.0401 139.328 82.1681 139.328 80.7281 139.256C77.9921 139.184 75.4001 138.608 74.3201 137.816C72.5921 136.448 72.1601 134.432 72.1601 130.184ZM56.7521 116.576L67.6961 117.512C66.4721 129.176 58.5521 136.448 42.5681 140.408L37.6721 131.192C44.2241 129.68 48.8321 127.88 51.4961 125.792C54.2321 123.704 55.9601 120.608 56.7521 116.576ZM39.5441 123.272V107.36H100.456V122.552H90.0161V115.208H49.9841V123.272H39.5441ZM64.2401 79.928V74.384H75.7601V79.928H102.472V88.568H37.5281V79.928H64.2401ZM45.8801 90.584H94.1201V105.416H45.8801V90.584ZM82.8161 99.512V96.704H57.1841V99.512H82.8161ZM162.016 99.08V139.472H150.568V97.352H159.424C153.232 93.32 147.4 88.568 142 83.096C136.6 88.568 130.768 93.32 124.576 97.352H134.512V104.264C134.512 126.008 130.768 132.2 116.584 140.192L110.248 131.336C120.904 125.576 123.28 121.616 123.28 104.264V98.216C119.392 100.592 115.576 102.752 111.76 104.624L107.656 95.48C118.168 90.008 127.168 83.6 134.8 76.04H149.2C156.832 83.6 165.832 90.008 176.344 95.48L172.24 104.624C168.568 102.824 165.184 100.952 162.016 99.08Z" fill="white"/>
</g>
<defs>
<clipPath id="clip0_1426_16">
<rect width="140" height="67" fill="white" transform="translate(37 74)"/>
</clipPath>
</defs>
</svg>
